IKResults
version=1
nRows=4
nColumns=63
inDegrees=yes

Units are S.I. units (second, meters, Newtons, ...)
If the header above contains a line with 'inDegrees', this indicates whether rotational values are in degrees (yes) or radians (no).

endheader
time	pelvis_tilt	pelvis_list	pelvis_rotation	pelvis_tx	pelvis_ty	pelvis_tz	hip_flexion_r	hip_adduction_r	hip_rotation_r	knee_angle_r	knee_angle_r_beta	ankle_angle_r	subtalar_angle_r	mtp_angle_r	hip_flexion_l	hip_adduction_l	hip_rotation_l	knee_angle_l	knee_angle_l_beta	ankle_angle_l	subtalar_angle_l	mtp_angle_l	L5_S1_Flex_Ext	L5_S1_Lat_Bending	L5_S1_axial_rotation	L4_L5_Flex_Ext	L4_L5_Lat_Bending	L4_L5_axial_rotation	L3_L4_Flex_Ext	L3_L4_Lat_Bending	L3_L4_axial_rotation	L2_L3_Flex_Ext	L2_L3_Lat_Bending	L2_L3_axial_rotation	L1_L2_Flex_Ext	L1_L2_Lat_Bending	L1_L2_axial_rotation	L1_T12_Flex_Ext	L1_T12_Lat_Bending	L1_T12_axial_rotation	Abs_r3	Abs_r2	Abs_r1	Abs_t1	Abs_t2	neck_flexion	neck_bending	neck_rotation	arm_flex_r	arm_add_r	arm_rot_r	elbow_flex_r	pro_sup_r	wrist_flex_r	wrist_dev_r	arm_flex_l	arm_add_l	arm_rot_l	elbow_flex_l	pro_sup_l	wrist_flex_l	wrist_dev_l
      6.03333333	    136.03880958	    -52.78934133	    228.75851753	     -0.53956168	      0.25834539	     -0.53880053	     45.57199076	    -11.45385976	    -39.74964398	     28.78856833	      0.50245530	      0.00000000	      0.00000000	      0.00000000	     47.12693760	     -0.98494769	     33.60045361	     17.27918339	      0.30157864	      0.00000000	      0.00000000	      0.00000000	      1.96444289	      1.08820665	     -9.54551456	      3.64816689	      1.44731484	    -10.14210922	      3.22738323	      2.64586564	    -10.14210922	      2.24516178	      2.64586564	     -8.35232524	      1.82418167	      2.21907100	     -7.75573058	      1.12248267	      1.68563210	     -7.15913592	     14.03181912	     12.31001124	    -53.08928833	      0.00000000	      0.00000000	      7.57955335	      1.63952108	     44.75433381	     14.95176352	      2.50625073	     -4.23629979	     34.29074269	     89.99559364	      0.00000000	      0.00000000	     95.33107453	     40.33649176	    -10.23266779	     73.33600759	     89.99559364	      0.00000000	      0.00000000
      6.06666667	    136.37312591	    -53.15287899	    229.00233952	     -0.53983127	      0.25776425	     -0.53893472	     45.45071165	    -11.86424561	    -39.75266033	     28.91739881	      0.50470382	      0.00000000	      0.00000000	      0.00000000	     46.87774590	     -0.70290820	     33.85517955	     17.16304950	      0.29955172	      0.00000000	      0.00000000	      0.00000000	      1.98030344	      1.04265635	     -9.55164514	      3.67762152	      1.38673295	    -10.14862296	      3.25344052	      2.53511465	    -10.14862296	      2.26328880	      2.53511465	     -8.35768950	      1.83890978	      2.12618483	     -7.76071168	      1.13154539	      1.61507469	     -7.16373386	     14.14510945	     11.79473716	    -53.12338478	      0.00000000	      0.00000000	      7.46642784	      1.33790434	     44.75149795	     14.93489850	      2.59269594	     -4.11989934	     34.10483050	     89.99559364	      0.00000000	      0.00000000	     95.35183766	     40.35557216	    -10.22992905	     73.32498799	     89.99559364	      0.00000000	      0.00000000
      6.10000000	    136.82930683	    -53.39813205	    229.32058474	     -0.54009183	      0.25742284	     -0.53881309	     45.50116674	    -12.25703952	    -39.75768903	     29.08221558	      0.50758042	      0.00000000	      0.00000000	      0.00000000	     46.83282460	     -0.43646213	     34.04022053	     17.14871999	      0.29930163	      0.00000000	      0.00000000	      0.00000000	      2.00945273	      1.00546054	     -9.54542948	      3.73175466	      1.33726251	    -10.14201883	      3.30132989	      2.44467675	    -10.14201883	      2.29660352	      2.44467675	     -8.35225080	      1.86597780	      2.05033512	     -7.75566146	      1.14820129	      1.55745837	     -7.15907211	     14.35331989	     11.37397067	    -53.08881516	      0.00000000	      0.00000000	      7.35637047	      1.38022041	     44.75135890	     14.92672745	      2.65050385	     -4.03206097	     33.95517236	     89.99559364	      0.00000000	      0.00000000	     95.38002173	     40.38189076	    -10.22622433	     73.30823440	     89.99559364	      0.00000000	      0.00000000
      6.13333333	    136.88819315	    -53.44949117	    229.32251441	     -0.54026541	      0.25722487	     -0.53878997	     45.47792064	    -12.31456647	    -39.76182225	     29.07362412	      0.50743047	      0.00000000	      0.00000000	      0.00000000	     46.85362959	     -0.45967195	     34.03165296	     17.14900305	      0.29930657	      0.00000000	      0.00000000	      0.00000000	      2.01184597	      1.00282605	     -9.54131507	      3.73619916	      1.33375865	    -10.13764727	      3.30526175	      2.43827126	    -10.13764727	      2.29933876	      2.43827126	     -8.34865069	      1.86820017	      2.04496288	     -7.75231850	      1.14956879	      1.55337755	     -7.15598631	     14.37041460	     11.34416886	    -53.06593205	      0.00000000	      0.00000000	      7.35414335	      1.36180563	     44.75304420	     14.93651839	      2.65022416	     -4.02979623	     33.95535377	     89.99559364	      0.00000000	      0.00000000	     95.38175268	     40.38356362	    -10.22599138	     73.30715944	     89.99559364	      0.00000000	      0.00000000
